<svg xmlns="http://www.w3.org/2000/svg" width="393.855" height="49.878" viewBox="0 0 393.855 49.878">
  <g id="Groupe_57" data-name="Groupe 57" transform="translate(-54.373 -433.392)">
    <g id="Groupe_48" data-name="Groupe 48">
      <path id="Tracé_195" data-name="Tracé 195" d="M250.573,453.085c.3-.344.554-.635.806-.928a25.692,25.692,0,0,1,7.031-6.016,9.892,9.892,0,0,1,4.973-1.451,4.639,4.639,0,0,1,4.356,2.732,9.751,9.751,0,0,1,.833,5.014,25.346,25.346,0,0,1-2.269,8.76,36.93,36.93,0,0,1-9.782,13.389,18.989,18.989,0,0,1-5.036,3.1,2.171,2.171,0,0,1-1.805.016,17.67,17.67,0,0,1-4.656-2.78A35.874,35.874,0,0,1,232.967,455.4a13.516,13.516,0,0,1-.075-6.66,4.947,4.947,0,0,1,3.942-3.978,6.744,6.744,0,0,1,3.224.248,14.973,14.973,0,0,1,5.653,3.172c1.459,1.278,2.774,2.722,4.148,4.1C250.089,452.514,250.293,452.77,250.573,453.085Z" fill="#ddc893"/>
    </g>
    <g id="Groupe_52" data-name="Groupe 52">
      <g id="Groupe_49" data-name="Groupe 49">
        <path id="Tracé_196" data-name="Tracé 196" d="M287.156,459.765a10.377,10.377,0,0,1,1.013-.357,13.86,13.86,0,0,0,5.817-2.823c2.538-2.05,4.975-4.224,7.508-6.282,1.4-1.14,2.9-2.171,4.383-3.207a5.239,5.239,0,0,1,1.517-.7,2.589,2.589,0,0,1,1.255-.039,1.3,1.3,0,0,1,.98,1.819,7.4,7.4,0,0,1-3.318,3.922,19.991,19.991,0,0,1-3.37,1.633,13.381,13.381,0,0,0-4.481,2.63,10.843,10.843,0,0,1-4.725,2.775,21.738,21.738,0,0,1-2.625.326c-.446.051-.9.075-1.339.153-.646.114-1.284.28-1.931.388C287.7,460.03,287.532,459.9,287.156,459.765Zm4.733-.79c.349-.055.6-.079.851-.138a11.485,11.485,0,0,0,5.3-2.912,13.316,13.316,0,0,1,4.613-2.776,20.724,20.724,0,0,0,3.363-1.637,7.109,7.109,0,0,0,2.92-3.263,1.114,1.114,0,0,0-.057-.989,1.332,1.332,0,0,0-1.047-.316,3.757,3.757,0,0,0-1.442.6c-1.41.968-2.829,1.932-4.153,3.01-1.786,1.456-3.451,3.06-5.234,4.52C295.385,456.4,293.674,457.621,291.889,458.975Z" fill="#ddc893"/>
        <path id="Tracé_197" data-name="Tracé 197" d="M358.034,458.645a2.289,2.289,0,0,1,.273-.448,7.5,7.5,0,0,0,1.994-3.034c.769-2.03,1.512-4.076,2.141-6.152a12.808,12.808,0,0,1,4.5-6.7c.914-.7,1.737-1.522,2.624-2.261a4.8,4.8,0,0,1,1.154-.744c1.013-.429,1.857.088,1.814,1.172a4.849,4.849,0,0,1-.5,2.076,23.246,23.246,0,0,1-1.96,2.84,8.059,8.059,0,0,1-1.294,1.361,16.3,16.3,0,0,0-4.059,5.3,14.418,14.418,0,0,1-4.477,5.073,12.258,12.258,0,0,0-.985.965C358.957,458.374,358.7,458.757,358.034,458.645Zm13.137-18.953c-.431.3-.934.607-1.38.979-.885.738-1.708,1.554-2.613,2.265a11.893,11.893,0,0,0-4.037,5.952c-.685,2.161-1.443,4.3-2.163,6.448-.022.066.019.153.042.306a9.688,9.688,0,0,0,2.259-2.55c.6-.983,1.2-1.967,1.747-2.983a12.885,12.885,0,0,1,2.5-3.157,32.125,32.125,0,0,0,3.113-3.434,11.07,11.07,0,0,0,1.264-2.539C372.111,440.479,371.981,440,371.171,439.692Z" fill="#ddc893"/>
        <path id="Tracé_198" data-name="Tracé 198" d="M301.788,459.806a2.015,2.015,0,0,1,1.65.518,15.434,15.434,0,0,0,4.3,2.172,9.813,9.813,0,0,1,3.667,2.254,46.793,46.793,0,0,0,5.746,4.518,13.351,13.351,0,0,1,1.887,1.586c1.013,1.07.751,2.148-.671,2.526a4.726,4.726,0,0,1-2.416.033,10.969,10.969,0,0,1-6.913-5.05c-.845-1.487-1.781-2.929-2.765-4.329a13.3,13.3,0,0,0-4-3.776A4.25,4.25,0,0,1,301.788,459.806Zm17.326,12.178a9.231,9.231,0,0,0-.76-.939,8.594,8.594,0,0,0-1.085-.858,43.184,43.184,0,0,1-6.988-5.646c-1.1-1.176-2.671-1.576-4.257-2.1a2.443,2.443,0,0,0,.148.4c1.153,1.725,2.4,3.394,3.443,5.184a10.938,10.938,0,0,0,6.21,4.764,5.349,5.349,0,0,0,1.943.2A1.389,1.389,0,0,0,319.114,471.984Z" fill="#ddc893"/>
        <path id="Tracé_199" data-name="Tracé 199" d="M390.047,446.4a3.007,3.007,0,0,1,.554-.315,15.863,15.863,0,0,0,6.52-4.334c1.513-1.557,2.867-3.267,4.31-4.892.787-.886,1.583-1.767,2.433-2.589a2.884,2.884,0,0,1,2.037-.882c1.406.006,2.113.949,1.534,2.217a7.4,7.4,0,0,1-1.375,1.888c-.513.55-1.186.947-1.722,1.479a9.26,9.26,0,0,0-1.312,1.593,10.5,10.5,0,0,1-7.432,4.887c-1.518.265-3.011.669-4.518,1-.319.071-.646.105-.97.155Zm16.978-11.91c-.814-.62-1.129-.708-1.847-.319a5.65,5.65,0,0,0-1.419,1.048c-.876.936-1.7,1.923-2.51,2.919a36.8,36.8,0,0,1-6.223,6.323,7.232,7.232,0,0,0-.53.5c4.178-.533,6.122-2,8.045-4.829a13.7,13.7,0,0,1,1.763-1.98c.584-.576,1.276-1.044,1.858-1.622A2.41,2.41,0,0,0,407.025,434.494Z" fill="#ddc893"/>
        <path id="Tracé_200" data-name="Tracé 200" d="M319.436,464.469a3.049,3.049,0,0,1,.854-.063,4.3,4.3,0,0,0,2.892-.358,15.394,15.394,0,0,1,5.347-1.629,13.629,13.629,0,0,0,5.029-1.956,42.7,42.7,0,0,1,4.083-1.986,5.338,5.338,0,0,1,2.121-.3,1.075,1.075,0,0,1,.968,1.619,4.68,4.68,0,0,1-2.155,2.241,18.754,18.754,0,0,1-5.8,2.2c-1.866.374-3.764.623-5.659.81-1.571.155-3.158.169-4.739.191a8.248,8.248,0,0,1-2.942-.537Zm20.845-5.381a2.931,2.931,0,0,0-.834-.353,2.222,2.222,0,0,0-1.057.152c-1.468.654-2.945,1.3-4.363,2.05a14.868,14.868,0,0,1-4.753,1.834c-.714.105-1.431.186-2.143.3a7.411,7.411,0,0,0-3.256,1.494,3.886,3.886,0,0,0,1.158.08c1.145-.1,2.288-.237,3.434-.331a24.411,24.411,0,0,0,7.641-1.788,21.11,21.11,0,0,0,3.012-1.655A2.526,2.526,0,0,0,340.281,459.088Z" fill="#ddc893"/>
        <path id="Tracé_201" data-name="Tracé 201" d="M339.8,468.406c.115-.035.237-.114.343-.1a6.1,6.1,0,0,1,1.634.327c2.18,1.035,4.535.952,6.844,1.221,3.26.38,4.821,2.537,4.691,4.974a5.881,5.881,0,0,1-.581,2.069,17.305,17.305,0,0,0-1.191,3.219,2.916,2.916,0,0,1-4.082,1.854c-.028-.013-.046-.046-.129-.133-.434-.611-.093-1.265.144-1.9a9.417,9.417,0,0,0,.76-3.445,6.312,6.312,0,0,0-1.875-4.53A13.01,13.01,0,0,0,340.966,469c-.394-.131-.8-.234-1.2-.35Zm6.015,2.142c.186.173.369.35.561.517a6.792,6.792,0,0,1,2.413,6.444,25.348,25.348,0,0,1-.724,2.752c-.1.393-.2.789-.289,1.16a2.246,2.246,0,0,0,3.2-1.453,11.309,11.309,0,0,1,1.228-3.41,4.673,4.673,0,0,0,.188-.455,3.96,3.96,0,0,0-2.232-5.2A8.641,8.641,0,0,0,345.816,470.548Z" fill="#ddc893"/>
        <path id="Tracé_202" data-name="Tracé 202" d="M373.367,450.338a1.934,1.934,0,0,1,.739-.052,21.918,21.918,0,0,0,4.766.7,14.456,14.456,0,0,1,5.225,1.676,30.009,30.009,0,0,0,5.514,2.617c1.48.464,1.754,1.758.591,2.808a4.978,4.978,0,0,1-5.119,1.209,9.613,9.613,0,0,1-4.04-2.907c-1.188-1.316-2.448-2.574-3.756-3.771a6.354,6.354,0,0,0-3.189-1.685,2.967,2.967,0,0,1-.774-.391C373.338,450.478,373.353,450.408,373.367,450.338Zm3.8,1.2c.045.122.048.2.089.233a25.17,25.17,0,0,1,4.573,4.488,9.375,9.375,0,0,0,2.794,2.165c1.739.968,3.315.463,4.827-.484a1.289,1.289,0,0,0,.657-1.657,6.373,6.373,0,0,0-1.021-.459,16.918,16.918,0,0,1-4.39-1.989c-.564-.338-1.143-.657-1.734-.945A12.714,12.714,0,0,0,377.167,451.542Z" fill="#ddc893"/>
        <path id="Tracé_203" data-name="Tracé 203" d="M409.638,446.4c.315.129.637.243.944.389.74.353,1.471.724,2.211,1.078.326.157.669.279,1,.435a6.509,6.509,0,0,1,3.711,4.593c.238.985.619,1.935.935,2.9.244.748.52,1.488.724,2.247a3.717,3.717,0,0,1-.629,3.1,2.683,2.683,0,0,1-4.128.337,2.445,2.445,0,0,1-.525-2.029c.131-1.506.3-3.017.287-4.524a9.566,9.566,0,0,0-1.463-5.06,6.954,6.954,0,0,0-2.531-2.583,4.54,4.54,0,0,1-.706-.589Zm3.165,2.369c.071.138.147.273.213.413a22.152,22.152,0,0,1,1.319,2.851,12.893,12.893,0,0,1,.462,5.467c-.091.718-.2,1.436-.24,2.157a1.556,1.556,0,0,0,1.213,1.876,1.659,1.659,0,0,0,2.154-.666,4.54,4.54,0,0,0,.62-1.626,4.828,4.828,0,0,0-.483-2.585,34.431,34.431,0,0,1-1.265-3.724A5.575,5.575,0,0,0,412.8,448.767Z" fill="#ddc893"/>
        <path id="Tracé_204" data-name="Tracé 204" d="M421.22,449.3c.5-.048,1.009-.085,1.51-.147a45.334,45.334,0,0,0,7.458-1.8q2.924-.876,5.9-1.557a5.394,5.394,0,0,1,3.113-.11,3.019,3.019,0,0,1,1.078.641,1.231,1.231,0,0,1-.231,2.131,1.144,1.144,0,0,1-.167.106c-3.18,1.4-6.373,2.631-9.982,2.08-2.562-.391-5.151-.6-7.726-.9a8.993,8.993,0,0,1-.986-.225Zm4.58-.034,0,.171c1.393.2,2.783.421,4.179.587a12.979,12.979,0,0,0,2.455.133,21.6,21.6,0,0,0,6.693-1.923,6.988,6.988,0,0,0,1.086-.7,1.458,1.458,0,0,0-1.528-1.315,14.857,14.857,0,0,0-3.216.343C432.227,447.4,429.019,448.358,425.8,449.269Z" fill="#ddc893"/>
        <path id="Tracé_205" data-name="Tracé 205" d="M438.19,462.864a20.891,20.891,0,0,1,1.389,3.7,30.525,30.525,0,0,0,2.22,6.523,21.882,21.882,0,0,1,1.788,5,5.539,5.539,0,0,1-1.264,4.606,3.532,3.532,0,0,1-.777.576,1.484,1.484,0,0,1-1.227-1.168c-.315-1.1-.573-2.221-.854-3.334a2.561,2.561,0,0,0-.118-.477c-1.3-2.733-.664-5.56-.323-8.343a16.852,16.852,0,0,0-.247-4.4C438.653,464.641,438.39,463.757,438.19,462.864Zm3.189,19.774a4.681,4.681,0,0,0,1.532-2.555,6.16,6.16,0,0,0-.505-3.843c-.813-2.08-1.689-4.137-2.545-6.2-.015-.036-.111-.038-.248-.08a17.6,17.6,0,0,0-.224,1.817c-.036,1.629-.474,3.256.053,4.891.35,1.09.586,2.217.885,3.324.146.539.294,1.079.488,1.6A9.086,9.086,0,0,0,441.379,482.638Z" fill="#ddc893"/>
        <path id="Tracé_206" data-name="Tracé 206" d="M430.516,476.446a5.186,5.186,0,0,1-.828.453c-.529.176-1.074.307-1.619.43a15.275,15.275,0,0,0-3.891,1.374,14.005,14.005,0,0,1-8.5,1.6,5.251,5.251,0,0,1-1.6-.479c-1.108-.534-1.211-1.524-.2-2.234a13.869,13.869,0,0,1,4.822-2.209,6.734,6.734,0,0,1,3.5.309,7.676,7.676,0,0,1,1.019.376,9.272,9.272,0,0,0,6.092.425c.349-.08.7-.141,1.054-.206C430.379,476.278,430.4,476.325,430.516,476.446Zm-16.748,2.234a3.671,3.671,0,0,0,.855.623,7.4,7.4,0,0,0,1.913.42,15.644,15.644,0,0,0,8.06-1.958,3.445,3.445,0,0,0,.408-.311c-1.12-.4-2.167-.784-3.224-1.141a4.665,4.665,0,0,0-3.287-.168c-1.337.537-2.637,1.171-3.936,1.8A4.124,4.124,0,0,0,413.768,478.68Z" fill="#ddc893"/>
        <path id="Tracé_207" data-name="Tracé 207" d="M431.633,471.983a1.988,1.988,0,0,1-1.344-1.253,4.2,4.2,0,0,1-.139-3.453,32.765,32.765,0,0,1,1.6-3.375c.382-.727.908-1.376,1.309-2.093a6.76,6.76,0,0,0,.45-5.265,2.169,2.169,0,0,1-.092-.976,1.944,1.944,0,0,1,.382.375,17.953,17.953,0,0,1,2.274,5.751,3.565,3.565,0,0,1-.454,2.761,26.028,26.028,0,0,0-2.82,6.07C432.567,471.106,432.387,471.722,431.633,471.983Zm2.812-13.16a7.928,7.928,0,0,1-1.751,4.852c-.32.46-.611.94-.9,1.417a9.9,9.9,0,0,0-1.316,3.491,2.629,2.629,0,0,0,1.281,2.808c.214-.513.447-1.011.631-1.526a17.715,17.715,0,0,1,2.263-5.128,3.764,3.764,0,0,0,.74-3.254A6.836,6.836,0,0,0,434.445,458.823Z" fill="#ddc893"/>
        <path id="Tracé_208" data-name="Tracé 208" d="M444.879,462.465c-2.426.4-4.768.373-6.749-1.317a4,4,0,0,1-1.625-2.224l.167-.154c.2.217.406.424.587.653a6.8,6.8,0,0,0,5.871,2.682,4.476,4.476,0,0,0,.592-.03c.29-.05.574-.132.841-.2.627-1.438,1.138-1.766,2.367-1.544a1.674,1.674,0,0,1,1.292,1.754c.053.96-.243,1.462-1,1.7C446.268,464.09,445.605,463.737,444.879,462.465Zm2.718.359c.106-1.126-.12-1.707-.708-1.9s-1.021.013-1.432.657C445.948,463.42,446.418,463.7,447.6,462.824Z" fill="#ddc893"/>
        <path id="Tracé_209" data-name="Tracé 209" d="M348.454,465.553a15.506,15.506,0,0,0,4.828-7.4c-.67.147-1.181.3-1.7.361a.911.911,0,0,1-.962-.694,1.966,1.966,0,0,1,.368-2.024,1.61,1.61,0,0,1,1.751-.327,1.527,1.527,0,0,1,1.01,1.645,8.277,8.277,0,0,1-.243,2.14,13.9,13.9,0,0,1-3.572,5.61A1.987,1.987,0,0,1,348.454,465.553Zm4.751-8.769c-.533-.8-.9-.992-1.416-.79a.974.974,0,0,0-.638,1.109,1.058,1.058,0,0,0,.355.734.928.928,0,0,0,.809-.105A6.358,6.358,0,0,0,353.2,456.784Z" fill="#ddc893"/>
        <path id="Tracé_210" data-name="Tracé 210" d="M400.044,452.969a2.085,2.085,0,0,0,.33-2.471,7.021,7.021,0,0,0-3.6-3.894l-.935-.51c1.088-.251,2.64.607,3.826,2.006a5.831,5.831,0,0,1,1.469,4.02c.681.117,1.426.077,1.739.782a2.469,2.469,0,0,1,.2,1.136,1.266,1.266,0,0,1-1.475,1.125C400.552,455.132,400.171,454.617,400.044,452.969Zm.643.839c.291.532.643.911,1.268.7a.756.756,0,0,0,.542-.84.939.939,0,0,0-.835-.837C401.082,452.834,400.769,453.164,400.687,453.808Z" fill="#ddc893"/>
        <path id="Tracé_211" data-name="Tracé 211" d="M314.29,458.931c-2.012,1.134-3.967,2.279-6.387,1.793a13.989,13.989,0,0,0,6-2.262c.122-1.549.542-2.265,1.423-2.469a1.768,1.768,0,0,1,2.139.792,1.867,1.867,0,0,1-.316,2.189C316.441,459.641,315.558,459.637,314.29,458.931Zm.23-1.034.928.995c1.056-.009,1.573-.349,1.666-1.061a1.133,1.133,0,0,0-.915-1.3C315.372,456.387,314.87,456.775,314.52,457.9Z" fill="#ddc893"/>
        <path id="Tracé_212" data-name="Tracé 212" d="M417.332,442.6c-.846,2.67-2.611,4.236-5.528,4.223l-.123-.242c.372-.109.744-.216,1.116-.326a5.125,5.125,0,0,0,3.937-3.811,2.113,2.113,0,0,1-.365-1.914,1.668,1.668,0,0,1,2.194-.967,1.283,1.283,0,0,1,.926,1.609,1.444,1.444,0,0,1-.936,1.065C418.193,442.386,417.8,442.463,417.332,442.6Zm1.583-1.947c-.5-.571-1.009-.728-1.5-.464-.453.244-.549.613-.38,1.45C418.087,442.054,418.71,441.727,418.915,440.654Z" fill="#ddc893"/>
        <path id="Tracé_213" data-name="Tracé 213" d="M284.1,460.458a3.2,3.2,0,0,1,.759-.052,4.118,4.118,0,0,1,2.235,1.379c.746.914,1.408,1.9,2.1,2.857a7.558,7.558,0,0,1,.38.661c1.179-.434,1.9-.268,2.484.544a1.49,1.49,0,0,1,.117,1.578,1.553,1.553,0,0,1-1.507.49,1.785,1.785,0,0,1-1.433-1.439,8.591,8.591,0,0,0-4.241-5.434C284.752,460.908,284.529,460.739,284.1,460.458Zm6.229,5.2c-.176.319-.339.617-.479.872.73,1.02,1.146,1.091,1.893.4C291.609,466.03,291.426,465.85,290.331,465.658Z" fill="#ddc893"/>
        <path id="Tracé_214" data-name="Tracé 214" d="M328.454,467.282c2.229.786,3.458,2.59,4.487,4.671a6.678,6.678,0,0,1,.739-.118,1.614,1.614,0,0,1,1.614,1.2,1.442,1.442,0,0,1-1.127,1.7c-.766.112-1.791-.647-1.7-1.43a4.4,4.4,0,0,0-1.137-3.051,7.514,7.514,0,0,0-2.438-2.277,7.085,7.085,0,0,1-.608-.447Zm5.437,6.946c.615-.244.942-.527.822-1.024s-.505-.729-1.117-.775l-.659.95Z" fill="#ddc893"/>
      </g>
      <g id="Groupe_50" data-name="Groupe 50">
        <path id="Tracé_215" data-name="Tracé 215" d="M280.11,461.241c.287-.107.568-.239.863-.318a46.739,46.739,0,0,1,11.2-1.771c2.374-.05,4.753-.086,7.124.019a43.851,43.851,0,0,1,12.006,2.294c4.032,1.35,8.032,2.8,12.073,4.119a51.342,51.342,0,0,0,11.69,2.428c5.459.456,10.584-.519,15.124-3.777,1.26-.9,2.524-1.806,3.742-2.765a75.2,75.2,0,0,1,29.721-14.285,67.924,67.924,0,0,1,23.194-1.271,71.625,71.625,0,0,1,22.089,6.2,17.827,17.827,0,0,1,9.26,9.337,11.713,11.713,0,0,1,.6,7.843c-1.156,4.134-4.041,6.523-8.092,7.614a14.99,14.99,0,0,1-2.14.373,5.482,5.482,0,0,1-1.085-.082l-.018-.3c.52-.1,1.038-.223,1.562-.3a11.33,11.33,0,0,0,6.517-3.056,9.751,9.751,0,0,0,2.7-9.636,15.25,15.25,0,0,0-7.529-9.983c-5.459-3.218-11.462-4.993-17.615-6.3a67.053,67.053,0,0,0-14.037-1.537,70.769,70.769,0,0,0-31.017,7.335,77.124,77.124,0,0,0-13.962,8.789,55.95,55.95,0,0,1-5.188,3.624,21.85,21.85,0,0,1-13.217,2.876c-6.525-.428-12.671-2.38-18.758-4.592a77.444,77.444,0,0,0-11.528-3.509,55.883,55.883,0,0,0-14.186-.781,60.7,60.7,0,0,0-10.043,1.582,6.217,6.217,0,0,1-1.007.071Z" fill="#ddc893"/>
      </g>
      <g id="Groupe_51" data-name="Groupe 51">
        <path id="Tracé_216" data-name="Tracé 216" d="M305.956,449.338l-10.613,6.8C296.331,454.634,304.085,449.693,305.956,449.338Z" fill="#ddc893"/>
        <path id="Tracé_217" data-name="Tracé 217" d="M306.933,463.949a23.846,23.846,0,0,0,7.659,6.761C311.536,469.968,307.109,466.107,306.933,463.949Z" fill="#ddc893"/>
        <path id="Tracé_218" data-name="Tracé 218" d="M439.589,468.617c1.088,3.818,2.218,7.628,2.285,11.6-.471-2.233-.933-4.508-1.437-6.774-.285-1.278-.649-2.538-.959-3.811a9.6,9.6,0,0,1-.141-1.019Z" fill="#ddc893"/>
        <path id="Tracé_219" data-name="Tracé 219" d="M350.059,478.391a2.387,2.387,0,0,1-.022-.483c.387-2.474-.821-4.233-2.611-5.686a24.039,24.039,0,0,0-2.333-1.5c.105-.057.164-.115.2-.1,2.431.951,4.382,2.407,5.143,5.047A2.8,2.8,0,0,1,350.059,478.391Z" fill="#ddc893"/>
        <path id="Tracé_220" data-name="Tracé 220" d="M368.056,443.857c-1.153,1.3-2.386,2.537-3.437,3.913s-1.921,2.891-2.976,4.508A16.737,16.737,0,0,1,368.056,443.857Z" fill="#ddc893"/>
        <path id="Tracé_221" data-name="Tracé 221" d="M434.2,457.316a4.367,4.367,0,0,1,.347.7,7.249,7.249,0,0,1,.217,3.5,16.517,16.517,0,0,1-2.543,5.583l-.178-.081c.47-.99.929-1.985,1.413-2.969a8.775,8.775,0,0,0,.944-4.875c-.063-.6-.224-1.194-.341-1.79Z" fill="#ddc893"/>
        <path id="Tracé_222" data-name="Tracé 222" d="M327.564,464.857a28.732,28.732,0,0,0,9.222-4.206C335.634,462.447,330.087,464.975,327.564,464.857Z" fill="#ddc893"/>
        <path id="Tracé_223" data-name="Tracé 223" d="M387.129,456.487a10.361,10.361,0,0,1-8.358-3.389,35.038,35.038,0,0,0,3.907,2.159A37.686,37.686,0,0,0,387.129,456.487Z" fill="#ddc893"/>
        <path id="Tracé_224" data-name="Tracé 224" d="M437.45,447.479a49.694,49.694,0,0,0-9.733,1.066A19.777,19.777,0,0,1,437.45,447.479Z" fill="#ddc893"/>
        <path id="Tracé_225" data-name="Tracé 225" d="M396.974,442.276a25.283,25.283,0,0,1,7.357-5.733Z" fill="#ddc893"/>
        <path id="Tracé_226" data-name="Tracé 226" d="M413.909,450.88c1.273,2.549,1.605,5.456,3.182,7.872C415.84,457.932,414.137,453.711,413.909,450.88Z" fill="#ddc893"/>
        <path id="Tracé_227" data-name="Tracé 227" d="M425.31,477.177a55.866,55.866,0,0,1-8.124.9A28.514,28.514,0,0,1,425.31,477.177Z" fill="#ddc893"/>
      </g>
    </g>
    <g id="Groupe_56" data-name="Groupe 56">
      <g id="Groupe_53" data-name="Groupe 53">
        <path id="Tracé_228" data-name="Tracé 228" d="M214.761,460.007c-.647-.108-1.284-.274-1.931-.388-.442-.078-.893-.1-1.339-.153a21.722,21.722,0,0,1-2.624-.326,10.846,10.846,0,0,1-4.726-2.775,13.381,13.381,0,0,0-4.481-2.63,19.99,19.99,0,0,1-3.37-1.633,7.4,7.4,0,0,1-3.318-3.922,1.3,1.3,0,0,1,.981-1.819,2.585,2.585,0,0,1,1.254.039,5.227,5.227,0,0,1,1.517.7c1.485,1.036,2.98,2.067,4.384,3.207,2.532,2.058,4.969,4.232,7.507,6.282a13.866,13.866,0,0,0,5.817,2.823,10.378,10.378,0,0,1,1.013.357C215.069,459.9,214.9,460.03,214.761,460.007Zm-9.167-4.934c-1.783-1.46-3.448-3.064-5.234-4.52-1.323-1.078-2.743-2.042-4.152-3.01a3.762,3.762,0,0,0-1.443-.6,1.332,1.332,0,0,0-1.047.316,1.114,1.114,0,0,0-.057.989,7.114,7.114,0,0,0,2.92,3.263,20.764,20.764,0,0,0,3.363,1.637,13.307,13.307,0,0,1,4.613,2.776,11.49,11.49,0,0,0,5.3,2.912c.247.059.5.083.851.138C208.927,457.621,207.216,456.4,205.594,455.073Z" fill="#ddc893"/>
        <path id="Tracé_229" data-name="Tracé 229" d="M143.346,458.1a12.1,12.1,0,0,0-.985-.965,14.418,14.418,0,0,1-4.477-5.073,16.277,16.277,0,0,0-4.059-5.3,8.1,8.1,0,0,1-1.294-1.361,23.246,23.246,0,0,1-1.96-2.84,4.85,4.85,0,0,1-.5-2.076c-.043-1.084.8-1.6,1.814-1.172a4.8,4.8,0,0,1,1.154.744c.888.739,1.71,1.559,2.624,2.261a12.808,12.808,0,0,1,4.5,6.7c.629,2.076,1.372,4.122,2.141,6.152a7.5,7.5,0,0,0,1.994,3.034,2.291,2.291,0,0,1,.273.448C143.9,458.757,143.644,458.374,143.346,458.1ZM130.7,440.979a11.109,11.109,0,0,0,1.264,2.539,32.125,32.125,0,0,0,3.113,3.434,12.884,12.884,0,0,1,2.5,3.157c.543,1.016,1.146,2,1.747,2.983a9.688,9.688,0,0,0,2.259,2.55c.023-.153.065-.24.043-.306-.721-2.15-1.479-4.287-2.164-6.448a11.893,11.893,0,0,0-4.037-5.952c-.9-.711-1.728-1.527-2.613-2.265-.446-.372-.949-.676-1.38-.979C130.62,440,130.491,440.479,130.7,440.979Z" fill="#ddc893"/>
        <path id="Tracé_230" data-name="Tracé 230" d="M200.325,460.258a13.3,13.3,0,0,0-4,3.776c-.983,1.4-1.92,2.842-2.765,4.329a10.969,10.969,0,0,1-6.913,5.05,4.726,4.726,0,0,1-2.416-.033c-1.422-.378-1.684-1.456-.671-2.526a13.409,13.409,0,0,1,1.887-1.586,46.791,46.791,0,0,0,5.746-4.518,9.813,9.813,0,0,1,3.667-2.254,15.406,15.406,0,0,0,4.3-2.172,2.015,2.015,0,0,1,1.65-.518A4.248,4.248,0,0,1,200.325,460.258Zm-15.492,12.721a5.347,5.347,0,0,0,1.943-.2,10.937,10.937,0,0,0,6.21-4.764c1.04-1.79,2.29-3.459,3.443-5.184a2.44,2.44,0,0,0,.148-.4c-1.586.526-3.153.926-4.257,2.1a43.186,43.186,0,0,1-6.988,5.646,8.593,8.593,0,0,0-1.085.858,9.23,9.23,0,0,0-.76.939A1.39,1.39,0,0,0,184.833,472.979Z" fill="#ddc893"/>
        <path id="Tracé_231" data-name="Tracé 231" d="M112.5,446.612c-.324-.05-.651-.084-.97-.155-1.506-.332-3-.736-4.518-1a10.5,10.5,0,0,1-7.432-4.887,9.254,9.254,0,0,0-1.311-1.593c-.537-.532-1.21-.929-1.723-1.479a7.4,7.4,0,0,1-1.374-1.888c-.579-1.268.127-2.211,1.533-2.217a2.884,2.884,0,0,1,2.037.882c.851.822,1.646,1.7,2.433,2.589,1.444,1.625,2.8,3.335,4.311,4.892A15.859,15.859,0,0,0,112,446.089a3.007,3.007,0,0,1,.554.315ZM96.439,436.536c.582.578,1.274,1.046,1.859,1.622a13.754,13.754,0,0,1,1.762,1.98c1.923,2.826,3.867,4.3,8.045,4.829-.218-.208-.36-.373-.529-.5a36.724,36.724,0,0,1-6.223-6.323c-.81-1-1.635-1.983-2.511-2.919a5.65,5.65,0,0,0-1.419-1.048c-.718-.389-1.033-.3-1.847.319A2.41,2.41,0,0,0,96.439,436.536Z" fill="#ddc893"/>
        <path id="Tracé_232" data-name="Tracé 232" d="M183.165,464.7a8.248,8.248,0,0,1-2.942.537c-1.581-.022-3.168-.036-4.739-.191-1.895-.187-3.792-.436-5.659-.81a18.739,18.739,0,0,1-5.8-2.2,4.677,4.677,0,0,1-2.156-2.241,1.075,1.075,0,0,1,.968-1.619,5.346,5.346,0,0,1,2.122.3,42.819,42.819,0,0,1,4.083,1.986,13.618,13.618,0,0,0,5.028,1.956,15.405,15.405,0,0,1,5.348,1.629,4.3,4.3,0,0,0,2.891.358,3.049,3.049,0,0,1,.854.063Zm-19.684-3.829a21.111,21.111,0,0,0,3.012,1.655,24.417,24.417,0,0,0,7.642,1.788c1.146.094,2.288.232,3.433.331a3.886,3.886,0,0,0,1.158-.08,7.408,7.408,0,0,0-3.255-1.494c-.713-.111-1.43-.192-2.143-.3a14.864,14.864,0,0,1-4.754-1.834c-1.417-.753-2.9-1.4-4.363-2.05a2.219,2.219,0,0,0-1.056-.152,2.925,2.925,0,0,0-.835.353A2.529,2.529,0,0,0,163.481,460.868Z" fill="#ddc893"/>
        <path id="Tracé_233" data-name="Tracé 233" d="M162.831,468.646c-.4.116-.8.219-1.2.35a13.01,13.01,0,0,0-5.393,2.972,6.316,6.316,0,0,0-1.875,4.53,9.417,9.417,0,0,0,.76,3.445c.237.632.579,1.286.144,1.9-.083.087-.1.12-.129.133a2.917,2.917,0,0,1-4.082-1.854,17.3,17.3,0,0,0-1.191-3.219,5.881,5.881,0,0,1-.581-2.069c-.13-2.437,1.431-4.594,4.691-4.974,2.309-.269,4.665-.186,6.844-1.221a6.1,6.1,0,0,1,1.634-.327c.107-.017.229.062.343.1ZM152.438,470.9a3.96,3.96,0,0,0-2.232,5.2,4.682,4.682,0,0,0,.189.455,11.333,11.333,0,0,1,1.227,3.41,2.246,2.246,0,0,0,3.2,1.453c-.092-.371-.185-.767-.289-1.16a25.345,25.345,0,0,1-.724-2.752,6.79,6.79,0,0,1,2.414-6.444c.191-.167.374-.344.561-.517A8.644,8.644,0,0,0,152.438,470.9Z" fill="#ddc893"/>
        <path id="Tracé_234" data-name="Tracé 234" d="M129.277,450.547a2.967,2.967,0,0,1-.774.391,6.358,6.358,0,0,0-3.189,1.685c-1.308,1.2-2.568,2.455-3.756,3.771a9.607,9.607,0,0,1-4.04,2.907,4.978,4.978,0,0,1-5.119-1.209c-1.163-1.05-.888-2.344.591-2.808a30.007,30.007,0,0,0,5.514-2.617,14.462,14.462,0,0,1,5.225-1.676,21.918,21.918,0,0,0,4.766-.7,1.934,1.934,0,0,1,.739.052Zm-9.638,2.347c-.591.288-1.169.607-1.734.945a16.918,16.918,0,0,1-4.39,1.989,6.373,6.373,0,0,0-1.021.459,1.289,1.289,0,0,0,.657,1.657c1.513.947,3.088,1.452,4.828.484a9.383,9.383,0,0,0,2.793-2.165,25.2,25.2,0,0,1,4.573-4.488c.041-.03.045-.111.089-.233A12.714,12.714,0,0,0,119.639,452.894Z" fill="#ddc893"/>
        <path id="Tracé_235" data-name="Tracé 235" d="M93.137,446.693a4.54,4.54,0,0,1-.706.589,6.953,6.953,0,0,0-2.531,2.583,9.566,9.566,0,0,0-1.463,5.06c-.014,1.507.156,3.018.287,4.524a2.442,2.442,0,0,1-.525,2.029,2.683,2.683,0,0,1-4.128-.337,3.717,3.717,0,0,1-.629-3.1c.2-.759.48-1.5.724-2.247.316-.967.7-1.917.935-2.9a6.509,6.509,0,0,1,3.711-4.593c.327-.156.67-.278,1-.435.74-.354,1.471-.725,2.211-1.078.307-.146.629-.26.944-.389Zm-7.332,6.237a34.218,34.218,0,0,1-1.265,3.724,4.828,4.828,0,0,0-.483,2.585,4.542,4.542,0,0,0,.621,1.626,1.658,1.658,0,0,0,2.153.666,1.555,1.555,0,0,0,1.213-1.876c-.043-.721-.148-1.439-.24-2.157a12.894,12.894,0,0,1,.462-5.467,22.153,22.153,0,0,1,1.319-2.851c.066-.14.142-.275.213-.413A5.575,5.575,0,0,0,85.805,452.93Z" fill="#ddc893"/>
        <path id="Tracé_236" data-name="Tracé 236" d="M81.41,449.515a9,9,0,0,1-.986.225c-2.575.3-5.164.512-7.726.9-3.609.551-6.8-.685-9.982-2.08a1.084,1.084,0,0,1-.166-.106,1.231,1.231,0,0,1-.232-2.131,3.023,3.023,0,0,1,1.079-.641,5.391,5.391,0,0,1,3.112.11q2.974.681,5.9,1.557a45.335,45.335,0,0,0,7.458,1.8c.5.062,1.006.1,1.51.147Zm-14.273-2.953a14.855,14.855,0,0,0-3.215-.343,1.459,1.459,0,0,0-1.529,1.315,6.987,6.987,0,0,0,1.086.7,21.6,21.6,0,0,0,6.693,1.923,12.975,12.975,0,0,0,2.455-.133c1.4-.166,2.786-.388,4.179-.587l0-.171C73.582,448.358,70.374,447.4,67.137,446.562Z" fill="#ddc893"/>
        <path id="Tracé_237" data-name="Tracé 237" d="M63.825,465.545a16.809,16.809,0,0,0-.247,4.4c.34,2.783.978,5.61-.324,8.343a2.641,2.641,0,0,0-.118.477c-.281,1.113-.539,2.232-.854,3.334a1.484,1.484,0,0,1-1.227,1.168,3.532,3.532,0,0,1-.777-.576,5.538,5.538,0,0,1-1.263-4.606,21.831,21.831,0,0,1,1.787-5,30.525,30.525,0,0,0,2.22-6.523,20.891,20.891,0,0,1,1.389-3.7C64.211,463.757,63.949,464.641,63.825,465.545Zm-2.039,16.047c.194-.522.343-1.062.488-1.6.3-1.107.535-2.234.885-3.324.527-1.635.089-3.262.053-4.891a17.325,17.325,0,0,0-.224-1.817c-.137.042-.233.044-.248.08-.856,2.064-1.731,4.121-2.545,6.2a6.16,6.16,0,0,0-.505,3.843,4.677,4.677,0,0,0,1.533,2.555A9.215,9.215,0,0,0,61.786,481.592Z" fill="#ddc893"/>
        <path id="Tracé_238" data-name="Tracé 238" d="M72.239,476.281c.352.065.705.126,1.054.206a9.272,9.272,0,0,0,6.092-.425,7.676,7.676,0,0,1,1.019-.376,6.735,6.735,0,0,1,3.5-.309,13.869,13.869,0,0,1,4.822,2.209c1.008.71.9,1.7-.2,2.234a5.251,5.251,0,0,1-1.595.479,14.005,14.005,0,0,1-8.5-1.6,15.262,15.262,0,0,0-3.891-1.374c-.545-.123-1.09-.254-1.619-.43a5.136,5.136,0,0,1-.827-.453C72.2,476.325,72.222,476.278,72.239,476.281Zm15.805,1.664c-1.3-.629-2.6-1.263-3.936-1.8a4.665,4.665,0,0,0-3.287.168c-1.057.357-2.1.743-3.223,1.141a3.361,3.361,0,0,0,.407.311,15.648,15.648,0,0,0,8.06,1.958,7.419,7.419,0,0,0,1.914-.42,3.69,3.69,0,0,0,.854-.623A4.1,4.1,0,0,0,88.044,477.945Z" fill="#ddc893"/>
        <path id="Tracé_239" data-name="Tracé 239" d="M69.806,470.525a26.028,26.028,0,0,0-2.82-6.07,3.57,3.57,0,0,1-.454-2.761,17.954,17.954,0,0,1,2.275-5.751,1.911,1.911,0,0,1,.381-.375,2.169,2.169,0,0,1-.092.976,6.76,6.76,0,0,0,.45,5.265c.4.717.927,1.366,1.309,2.093a32.767,32.767,0,0,1,1.6,3.375,4.2,4.2,0,0,1-.139,3.453,1.988,1.988,0,0,1-1.344,1.253C70.214,471.722,70.034,471.106,69.806,470.525Zm-2.592-9.042a3.763,3.763,0,0,0,.739,3.254,17.716,17.716,0,0,1,2.263,5.128c.184.515.417,1.013.631,1.526a2.629,2.629,0,0,0,1.281-2.808,9.9,9.9,0,0,0-1.316-3.491c-.294-.477-.585-.957-.9-1.417a7.922,7.922,0,0,1-1.752-4.852A6.818,6.818,0,0,0,67.214,461.483Z" fill="#ddc893"/>
        <path id="Tracé_240" data-name="Tracé 240" d="M55.379,463.79c-.757-.238-1.053-.74-1-1.7a1.675,1.675,0,0,1,1.292-1.754c1.229-.222,1.74.106,2.368,1.544.266.063.55.145.84.2a4.494,4.494,0,0,0,.592.03,6.8,6.8,0,0,0,5.871-2.682c.182-.229.391-.436.587-.653l.167.154a4,4,0,0,1-1.624,2.224c-1.982,1.69-4.324,1.721-6.75,1.317C57,463.737,56.333,464.09,55.379,463.79Zm1.765-2.209c-.411-.644-.852-.847-1.432-.657s-.814.774-.707,1.9C56.183,463.7,56.653,463.42,57.144,461.581Z" fill="#ddc893"/>
        <path id="Tracé_241" data-name="Tracé 241" d="M152.669,464.866a13.911,13.911,0,0,1-3.572-5.61,8.277,8.277,0,0,1-.243-2.14,1.527,1.527,0,0,1,1.011-1.645,1.609,1.609,0,0,1,1.75.327,1.966,1.966,0,0,1,.368,2.024.911.911,0,0,1-.962.694c-.521-.06-1.032-.214-1.7-.361a15.5,15.5,0,0,0,4.827,7.4A1.989,1.989,0,0,1,152.669,464.866Zm-2.383-7.134a.928.928,0,0,0,.809.105,1.058,1.058,0,0,0,.355-.734.974.974,0,0,0-.638-1.109c-.516-.2-.883-.008-1.416.79A6.359,6.359,0,0,0,150.286,457.732Z" fill="#ddc893"/>
        <path id="Tracé_242" data-name="Tracé 242" d="M101.012,455.163a1.265,1.265,0,0,1-1.474-1.125,2.469,2.469,0,0,1,.194-1.136c.313-.705,1.058-.665,1.739-.782a5.831,5.831,0,0,1,1.469-4.02c1.187-1.4,2.738-2.257,3.826-2.006l-.935.51a7.021,7.021,0,0,0-3.6,3.894,2.084,2.084,0,0,0,.331,2.471C102.43,454.617,102.049,455.132,101.012,455.163Zm-.073-2.329a.937.937,0,0,0-.834.837.756.756,0,0,0,.542.84c.624.208.977-.171,1.267-.7C101.832,453.164,101.519,452.834,100.939,452.834Z" fill="#ddc893"/>
        <path id="Tracé_243" data-name="Tracé 243" d="M185.452,458.974a1.867,1.867,0,0,1-.316-2.189,1.768,1.768,0,0,1,2.139-.792c.882.2,1.3.92,1.423,2.469a13.994,13.994,0,0,0,6,2.262c-2.42.486-4.375-.659-6.386-1.793C187.043,459.637,186.16,459.641,185.452,458.974Zm.95-2.448a1.134,1.134,0,0,0-.915,1.3c.093.712.61,1.052,1.666,1.061l.929-.995C187.731,456.775,187.23,456.387,186.4,456.526Z" fill="#ddc893"/>
        <path id="Tracé_244" data-name="Tracé 244" d="M84.048,442.238a1.444,1.444,0,0,1-.936-1.065,1.283,1.283,0,0,1,.926-1.609,1.667,1.667,0,0,1,2.194.967,2.11,2.11,0,0,1-.365,1.914,5.125,5.125,0,0,0,3.937,3.811c.372.11.744.217,1.116.326l-.123.242c-2.917.013-4.682-1.553-5.528-4.223C84.8,442.463,84.408,442.386,84.048,442.238Zm1.516-.6c.169-.837.073-1.206-.38-1.45-.489-.264-1-.107-1.5.464C83.891,441.727,84.514,442.054,85.564,441.64Z" fill="#ddc893"/>
        <path id="Tracé_245" data-name="Tracé 245" d="M217.607,461.042a8.591,8.591,0,0,0-4.241,5.434,1.785,1.785,0,0,1-1.433,1.439,1.553,1.553,0,0,1-1.507-.49,1.494,1.494,0,0,1,.117-1.578c.582-.812,1.305-.978,2.484-.544a7.321,7.321,0,0,1,.381-.661c.689-.96,1.351-1.943,2.1-2.857a4.112,4.112,0,0,1,2.234-1.379,3.2,3.2,0,0,1,.759.052C218.072,460.739,217.849,460.908,217.607,461.042Zm-6.751,5.89c.747.689,1.163.618,1.893-.4l-.478-.872C211.175,465.85,210.992,466.03,210.856,466.932Z" fill="#ddc893"/>
        <path id="Tracé_246" data-name="Tracé 246" d="M174.318,467.527a7.231,7.231,0,0,1-.607.447,7.507,7.507,0,0,0-2.439,2.277,4.394,4.394,0,0,0-1.136,3.051c.089.783-.936,1.542-1.7,1.43a1.442,1.442,0,0,1-1.127-1.7,1.614,1.614,0,0,1,1.614-1.2,6.64,6.64,0,0,1,.739.118c1.029-2.081,2.258-3.885,4.487-4.671Zm-4.654,5.852-.659-.95c-.612.046-1,.286-1.117.775s.207.78.822,1.024Z" fill="#ddc893"/>
      </g>
      <g id="Groupe_54" data-name="Groupe 54">
        <path id="Tracé_247" data-name="Tracé 247" d="M222.491,461.241c-.287-.107-.568-.239-.863-.318a46.731,46.731,0,0,0-11.2-1.771c-2.374-.05-4.753-.086-7.123.019a43.851,43.851,0,0,0-12.007,2.294c-4.031,1.35-8.031,2.8-12.072,4.119a51.362,51.362,0,0,1-11.691,2.428c-5.459.456-10.584-.519-15.124-3.777-1.26-.9-2.524-1.806-3.742-2.765a75.2,75.2,0,0,0-29.721-14.285,67.924,67.924,0,0,0-23.194-1.271,71.625,71.625,0,0,0-22.089,6.2,17.827,17.827,0,0,0-9.26,9.337,11.713,11.713,0,0,0-.6,7.843c1.156,4.134,4.041,6.523,8.093,7.614a14.965,14.965,0,0,0,2.14.373,5.478,5.478,0,0,0,1.084-.082l.018-.3c-.52-.1-1.038-.223-1.562-.3a11.33,11.33,0,0,1-6.517-3.056,9.754,9.754,0,0,1-2.7-9.636,15.252,15.252,0,0,1,7.53-9.983c5.459-3.218,11.461-4.993,17.614-6.3a67.053,67.053,0,0,1,14.037-1.537,70.769,70.769,0,0,1,31.017,7.335,77.124,77.124,0,0,1,13.962,8.789,56.081,56.081,0,0,0,5.188,3.624,21.85,21.85,0,0,0,13.217,2.876c6.525-.428,12.672-2.38,18.758-4.592a77.445,77.445,0,0,1,11.528-3.509,55.883,55.883,0,0,1,14.186-.781,60.7,60.7,0,0,1,10.043,1.582,6.217,6.217,0,0,0,1.007.071Z" fill="#ddc893"/>
      </g>
      <g id="Groupe_55" data-name="Groupe 55">
        <path id="Tracé_248" data-name="Tracé 248" d="M196.645,449.338l10.613,6.8C206.271,454.634,198.516,449.693,196.645,449.338Z" fill="#ddc893"/>
        <path id="Tracé_249" data-name="Tracé 249" d="M195.668,463.949a23.846,23.846,0,0,1-7.659,6.761C191.065,469.968,195.493,466.107,195.668,463.949Z" fill="#ddc893"/>
        <path id="Tracé_250" data-name="Tracé 250" d="M63.012,468.617c-1.088,3.818-2.218,7.628-2.285,11.6.471-2.233.933-4.508,1.437-6.774.285-1.278.649-2.538.959-3.811a9.6,9.6,0,0,0,.141-1.019Z" fill="#ddc893"/>
        <path id="Tracé_251" data-name="Tracé 251" d="M152.542,478.391a2.387,2.387,0,0,0,.022-.483c-.387-2.474.822-4.233,2.611-5.686a24.037,24.037,0,0,1,2.333-1.5c-.1-.057-.164-.115-.2-.1-2.432.951-4.383,2.407-5.143,5.047A2.8,2.8,0,0,0,152.542,478.391Z" fill="#ddc893"/>
        <path id="Tracé_252" data-name="Tracé 252" d="M134.545,443.857c1.154,1.3,2.386,2.537,3.437,3.913s1.921,2.891,2.976,4.508A16.731,16.731,0,0,0,134.545,443.857Z" fill="#ddc893"/>
        <path id="Tracé_253" data-name="Tracé 253" d="M68.4,457.316a4.366,4.366,0,0,0-.347.7,7.237,7.237,0,0,0-.216,3.5A16.534,16.534,0,0,0,70.38,467.1l.178-.081c-.47-.99-.929-1.985-1.413-2.969a8.793,8.793,0,0,1-.944-4.875c.063-.6.224-1.194.341-1.79Z" fill="#ddc893"/>
        <path id="Tracé_254" data-name="Tracé 254" d="M175.038,464.857a28.737,28.737,0,0,1-9.223-4.206C166.968,462.447,172.514,464.975,175.038,464.857Z" fill="#ddc893"/>
        <path id="Tracé_255" data-name="Tracé 255" d="M115.472,456.487a10.361,10.361,0,0,0,8.358-3.389,35.04,35.04,0,0,1-3.907,2.159A37.634,37.634,0,0,1,115.472,456.487Z" fill="#ddc893"/>
        <path id="Tracé_256" data-name="Tracé 256" d="M65.151,447.479a49.7,49.7,0,0,1,9.733,1.066A19.777,19.777,0,0,0,65.151,447.479Z" fill="#ddc893"/>
        <path id="Tracé_257" data-name="Tracé 257" d="M105.627,442.276a25.283,25.283,0,0,0-7.357-5.733Z" fill="#ddc893"/>
        <path id="Tracé_258" data-name="Tracé 258" d="M88.692,450.88c-1.273,2.549-1.605,5.456-3.182,7.872C86.761,457.932,88.464,453.711,88.692,450.88Z" fill="#ddc893"/>
        <path id="Tracé_259" data-name="Tracé 259" d="M77.291,477.177a55.866,55.866,0,0,0,8.124.9A28.514,28.514,0,0,0,77.291,477.177Z" fill="#ddc893"/>
      </g>
    </g>
  </g>
</svg>
